<?xml version="1.0" encoding="utf-8"?>
<!-- Generator: Adobe Illustrator 24.2.0, SVG Export Plug-In . SVG Version: 6.00 Build 0)  -->
<svg version="1.1" id="Layer_1" xmlns="http://www.w3.org/2000/svg" xmlns:xlink="http://www.w3.org/1999/xlink" x="0px" y="0px"
	 viewBox="0 0 1000 1000" style="enable-background:new 0 0 1000 1000;" xml:space="preserve">
<style type="text/css">
	.st0{fill:#2479BF;}
</style>
<path class="st0" d="M157.5,157.5v685h685v-685H157.5z M549,529.1h-89.1v253.5h-63.2V529.1h-89.1v-27.9l0.5,0.2v-28.1l119.9-0.5
	c65.9,0,120.2,0.2,120.2,0.7c0.7,0.3,0.7,12.8,0.7,28.3V529.1z M780.9,730.5c-11,28.6-37.7,48-75.9,54.3c-12,2.1-39.4,1.7-52.2-0.5
	c-27.4-5.1-53.6-18.8-69.7-36.5c-6.3-6.8-18.5-25.2-17.8-26.4l6.5-4.1l25.7-14.9l19.4-11.3l4.5,6c5.7,8.9,18.3,20.9,25.7,25
	c22.3,11.5,52.1,9.9,66.8-3.4c6.3-5.8,9.1-12,9.1-20.6c0-7.9-1.2-11.5-5.1-17.5c-5.5-7.5-16.4-13.7-47.3-27.4
	c-35.4-15.1-50.5-24.7-64.6-39.4c-8.1-8.9-15.4-22.8-18.8-34.3c-2.6-9.9-3.4-34.3-1-44c7.4-34.3,33.2-58.2,70.2-65.1
	c12-2.4,40.2-1.4,52.1,1.7l-0.3,0.3c17.5,4.1,30.8,12,42.8,24.5c6.3,6.8,15.8,18.8,16.4,21.9c0,1-29.6,21.1-47.6,32.2
	c-0.7,0.5-3.4-2.4-6.2-6.8c-8.9-12.7-18-18.2-32.2-19.2c-20.6-1.4-34.3,9.4-34.3,27.4c0,5.5,1,8.6,3.1,13
	c4.6,9.4,13.2,15.1,39.7,26.7c49,21.1,70.2,34.9,83.1,54.8C787.4,669.4,790.6,704.3,780.9,730.5z"/>
</svg>
